# xmcd CD database file
#
# Track frame offsets:
#	187
#	11147
#	21937
#	34860
#	43585
#	52295
#	65050
#	80842
#	94822
#	106737
#	119160
#	133072
#
# Disc length: 1916 seconds
#
# Revision: 0
# Processed by: cddbd v1.5.2PL0 Copyright (c) Steve Scherf et al.
# Submitted via: CDex 1.70beta3
#
DISCID=b2077a0c
DTITLE=Billy Nencioli - Billy Nencioli Accompagné Par Baden Powell
DYEAR=1965
DGENRE=Jazz
TTITLE0=Si Rien Ne Va
TTITLE1=Cet Hiver A Courchevel
TTITLE2=Quel Metier
TTITLE3=On Peut Me Dire Du Mal De Toi
TTITLE4=Mais Ne Ricole Pas
TTITLE5=Pour Toi Marie
TTITLE6=Un Vieux Refrain
TTITLE7=Jean Marie Juana
TTITLE8=Tiens Bonjour!
TTITLE9=La Derniere Fois
TTITLE10=Souviens-Toi Mon Frere
TTITLE11=Mon Ami Pierrot
EXTD=YEAR: 1965
EXTT0=
EXTT1=
EXTT2=
EXTT3=
EXTT4=
EXTT5=
EXTT6=
EXTT7=
EXTT8=
EXTT9=
EXTT10=
EXTT11=
PLAYORDER=
